<svg xmlns="http://www.w3.org/2000/svg" viewBox="0 0 24 24" fill="none" stroke="currentColor" stroke-width="2" stroke-linecap="round" stroke-linejoin="round">
  <path d="M22 16.9v3a2 2 0 0 1-2.2 2 19.8 19.8 0 0 1-8.6-3.1 19.5 19.5 0 0 1-6-6 19.8 19.8 0 0 1-3.1-8.7A2 2 0 0 1 4.1 2h3a2 2 0 0 1 2 1.7 12.8 12.8 0 0 0 .7 2.8 2 2 0 0 1-.5 2.1L8.1 9.9a16 16 0 0 0 6 6l1.3-1.3a2 2 0 0 1 2.1-.5 12.8 12.8 0 0 0 2.8.7A2 2 0 0 1 22 16.9z"/>
  <path d="M14 2a8 8 0 0 1 8 8"/>
  <path d="M14 6a4 4 0 0 1 4 4"/>
</svg>